<?xml version="1.0" encoding="UTF-8" standalone="no"?><!DOCTYPE svg PUBLIC "-//W3C//DTD SVG 1.1//EN" "http://www.w3.org/Graphics/SVG/1.1/DTD/svg11.dtd"><svg width="100%" height="100%" viewBox="0 0 600 226" version="1.1" xmlns="http://www.w3.org/2000/svg" xmlns:xlink="http://www.w3.org/1999/xlink" xml:space="preserve" style="fill-rule:evenodd;clip-rule:evenodd;stroke-linejoin:round;stroke-miterlimit:1.41421;"><path d="M0,212.54l0,-191.718c0,-6.748 1.892,-11.759 5.675,-15.031c3.783,-3.272 8.538,-4.908 14.264,-4.908c7.566,0 13.394,1.33 17.484,3.988c4.09,2.659 8.589,8.385 13.497,17.178l37.73,68.712l37.73,-68.712c4.908,-8.793 9.458,-14.519 13.651,-17.178c4.192,-2.658 10.071,-3.988 17.638,-3.988c5.726,0 10.48,1.636 14.264,4.908c3.783,3.272 5.674,8.283 5.674,15.031l0,191.718c0,3.885 -1.994,6.953 -5.981,9.202c-3.988,2.25 -8.64,3.375 -13.957,3.375c-5.522,0 -10.225,-1.125 -14.111,-3.375c-3.885,-2.249 -5.828,-5.317 -5.828,-9.202l0,-131.902l-35.89,63.804c-2.862,5.317 -7.361,7.975 -13.496,7.975c-5.931,0 -10.328,-2.658 -13.191,-7.975l-35.276,-66.258l0,134.356c0,3.885 -1.994,6.953 -5.981,9.202c-3.988,2.25 -8.64,3.375 -13.957,3.375c-5.522,0 -10.225,-1.125 -14.111,-3.375c-3.885,-2.249 -5.828,-5.317 -5.828,-9.202Zm204.294,-50.307l0,-25.153c0,-16.769 6.544,-31.34 19.632,-43.712c13.088,-12.372 28.732,-18.558 46.933,-18.558c17.791,0 33.333,6.135 46.626,18.405c13.292,12.27 19.938,26.891 19.938,43.865l0,25.153c0,16.565 -6.646,31.186 -19.938,43.865c-13.293,12.679 -28.835,19.019 -46.626,19.019c-17.792,0 -33.333,-6.34 -46.626,-19.019c-13.292,-12.679 -19.939,-27.3 -19.939,-43.865Zm304.908,-2.454l0,4.601c0,8.794 3.272,15.9 9.816,21.319c6.544,5.42 15.236,8.129 26.074,8.129c7.771,0 15.44,-1.943 23.006,-5.828c7.567,-3.885 12.475,-5.828 14.724,-5.828c4.295,0 7.873,1.994 10.736,5.981c2.863,3.988 4.295,7.822 4.295,11.503c0,5.726 -5.164,11.401 -15.491,17.025c-10.327,5.624 -23.16,8.436 -38.497,8.436c-21.881,0 -39.724,-5.778 -53.528,-17.332c-13.803,-11.554 -20.705,-26.738 -20.705,-45.552l0,-26.073c0,-16.769 6.544,-31.187 19.632,-43.252c13.088,-12.065 28.936,-18.098 47.546,-18.098c17.382,0 32.26,5.47 44.632,16.411c12.372,10.941 18.558,24.693 18.558,41.258c0,6.134 -0.767,11.196 -2.301,15.184c-1.533,3.987 -3.885,6.799 -7.055,8.435c-3.17,1.636 -6.084,2.659 -8.742,3.068c-2.652,0.408 -6.118,0.612 -10.43,0.613l-62.27,0Zm-146.625,50l0,-120.859c0,-3.681 1.789,-6.646 5.368,-8.895c3.579,-2.25 8.231,-3.375 13.957,-3.375c5.112,0 9.356,1.125 12.73,3.375c3.374,2.249 5.061,5.214 5.061,8.895l0,12.577c3.272,-7.158 8.385,-13.395 15.338,-18.712c6.953,-5.317 14.417,-7.975 22.392,-7.975l9.51,0c3.68,0 7.004,1.738 9.969,5.215c2.965,3.476 4.448,7.464 4.448,11.963c0,4.703 -1.483,8.793 -4.448,12.27c-2.965,3.476 -6.289,5.214 -9.969,5.214l-9.51,0c-9.407,0 -17.638,4.193 -24.693,12.577c-7.055,8.385 -10.583,19.325 -10.583,32.822l0,54.908c0,3.068 -2.045,5.931 -6.135,8.589c-4.09,2.659 -8.793,3.988 -14.11,3.988c-5.522,0 -10.123,-1.278 -13.804,-3.835c-3.681,-2.556 -5.521,-5.47 -5.521,-8.742Zm-118.712,-47.546c0,7.362 2.659,13.906 7.975,19.632c5.317,5.726 11.657,8.589 19.019,8.589c7.157,0 13.446,-2.863 18.865,-8.589c5.419,-5.726 8.129,-12.27 8.129,-19.632l0,-25.153c0,-6.953 -2.71,-13.293 -8.129,-19.019c-5.419,-5.726 -11.708,-8.589 -18.865,-8.589c-7.362,0 -13.702,2.812 -19.019,8.436c-5.316,5.624 -7.975,12.014 -7.975,19.172l0,25.153Zm265.337,-25.767l44.786,0c3.272,0 5.572,-0.562 6.902,-1.687c1.329,-1.125 1.993,-3.323 1.993,-6.595c0,-7.157 -2.607,-12.986 -7.822,-17.485c-5.214,-4.499 -11.605,-6.748 -19.171,-6.748c-7.158,0 -13.395,2.198 -18.712,6.595c-5.317,4.397 -7.976,10.174 -7.976,17.331l0,8.589Zm-238.343,-135.583c10.92,0 19.785,8.866 19.785,19.786c0,10.92 -8.865,19.785 -19.785,19.785c-10.92,0 -19.785,-8.865 -19.785,-19.785c0,-10.92 8.865,-19.786 19.785,-19.786Zm111.503,0c10.92,0 19.785,8.866 19.785,19.786c0,10.92 -8.865,19.785 -19.785,19.785c-10.92,0 -19.785,-8.865 -19.785,-19.785c0,-10.92 8.865,-19.786 19.785,-19.786Zm111.503,0c10.92,0 19.785,8.866 19.785,19.786c0,10.92 -8.865,19.785 -19.785,19.785c-10.92,0 -19.785,-8.865 -19.785,-19.785c0,-10.92 8.865,-19.786 19.785,-19.786Z"/></svg>